<svg width="56" height="32" viewBox="0 0 56 32" fill="none" xmlns="http://www.w3.org/2000/svg">
    <circle cx="16" cy="16" r="15.5" stroke="#ED1376" stroke-opacity="0.4"/>
    <g clip-path="url(#clip0)">
        <path d="M16.0612 8C12.7193 8.01342 10.0134 10.7193 10 14.0612C10 14.7305 10.108 15.3953 10.3196 16.03C10.4775 16.4622 10.9461 16.6948 11.3859 16.5612C11.8109 16.3982 12.0366 15.9335 11.9011 15.4988C11.7215 15.0041 11.6416 14.4793 11.6652 13.9538C11.7381 11.5401 13.7536 9.64219 16.1673 9.71506C18.5811 9.78793 20.4789 11.8034 20.4061 14.2172C20.3377 16.4769 18.5581 18.3121 16.3009 18.4495C16.3009 18.4495 15.4501 18.5013 15.0269 18.5531C14.871 18.5755 14.7163 18.6062 14.5635 18.6451C14.5418 18.6675 14.5066 18.6675 14.4842 18.6458L14.4836 18.6451C14.4682 18.6253 14.4682 18.5972 14.4836 18.5774L14.6153 17.8589L15.4143 14.2651C15.5102 13.8164 15.2245 13.3747 14.7757 13.2788C14.327 13.1829 13.8853 13.4686 13.7894 13.9174C13.7894 13.9174 11.8889 22.7139 11.8889 22.7938C11.7803 23.2214 12.0385 23.6561 12.4662 23.7648C12.4706 23.766 12.4757 23.7673 12.4802 23.768H12.5243C12.9513 23.8785 13.3873 23.6216 13.4972 23.1946C13.4992 23.1875 13.5011 23.1805 13.5024 23.1728C13.5011 23.1594 13.5011 23.146 13.5024 23.1332C13.526 23.0296 13.7657 21.8592 13.7657 21.8592C13.9473 20.9758 14.6594 20.2988 15.5505 20.162C15.7339 20.1339 16.5048 20.0821 16.5048 20.0821C19.834 19.7504 22.2637 16.7824 21.9313 13.4533C21.6283 10.4169 19.1129 8.07926 16.0612 8Z" fill="#1E1E1E"/>
        <path d="M16.4288 21.9755C15.8822 21.8617 15.3478 22.2127 15.234 22.7586C15.2327 22.7637 15.2321 22.7688 15.2308 22.7739C15.1125 23.3166 15.4565 23.853 15.9998 23.9712C16.0005 23.9712 16.0011 23.9712 16.0017 23.9719H16.0299C16.5617 24.1004 17.0968 23.7731 17.2246 23.2419C17.2259 23.238 17.2265 23.2335 17.2278 23.2297V23.1741C17.3218 22.6256 16.9715 22.0995 16.4288 21.9755Z" fill="#E6007A"/>
    </g>
    <circle cx="40" cy="16" r="16" fill="white"/>
    <circle cx="40" cy="16" r="15.5" stroke="#ED1376" stroke-opacity="0.4"/>
    <path d="M39.9869 24C44.3973 24 47.9726 20.4183 47.9726 16C47.9726 14.4081 47.5085 12.9249 46.7084 11.6786C45.6538 10.936 44.3685 10.5 42.9815 10.5C42.0775 10.5 41.2166 10.6852 40.4347 11.0199C42.9814 11.2467 44.9779 13.3898 44.9779 16C44.9779 18.045 43.4806 20 41.997 20.95C40.486 22 38.9163 22.5 36.9922 22.5C36.2905 22.5 35.6114 22.4033 34.9674 22.2225C36.3389 23.3342 38.0853 24 39.9869 24Z" fill="black"/>
    <path d="M39.9857 7.99999C35.5753 7.99999 32 11.5817 32 16C32 17.5919 32.4641 19.0751 33.2641 20.3214C34.3187 21.064 35.6041 21.5 36.991 21.5C37.8951 21.5 38.7559 21.3148 39.5379 20.9801C36.9912 20.7533 34.9946 18.6102 34.9946 16C34.9946 13.955 36.4919 12 37.9755 11.05C39.4866 9.99999 41.0562 9.49999 42.9803 9.5C43.682 9.5 44.3611 9.59669 45.0051 9.77752C43.6336 8.66585 41.8873 7.99999 39.9857 7.99999Z" fill="url(#paint0_linear)"/>
    <path d="M40.0147 24C44.4251 24 48.0004 20.4183 48.0004 16C48.0004 14.4081 47.5363 12.9249 46.7362 11.6786C45.6816 10.936 44.3963 10.5 43.0093 10.5C42.1053 10.5 41.2444 10.6852 40.4625 11.0199C43.0092 11.2467 45.0058 13.3898 45.0058 16C45.0058 18.045 43.5084 20 42.0249 20.95C40.5138 22 38.9441 22.5 37.02 22.5C36.3184 22.5 35.6393 22.4033 34.9952 22.2225C36.3667 23.3342 38.1131 24 40.0147 24Z" fill="url(#paint1_linear)"/>
    <defs>
        <linearGradient id="paint0_linear" x1="33.4973" y1="20.5" x2="43.999" y2="9.01868" gradientUnits="userSpaceOnUse">
            <stop offset="0.399257" stop-color="#D1327A"/>
            <stop offset="1" stop-color="#850C63"/>
        </linearGradient>
        <linearGradient id="paint1_linear" x1="46.5031" y1="11.5" x2="36.0014" y2="22.9813" gradientUnits="userSpaceOnUse">
            <stop offset="0.411458" stop-color="#D1327A"/>
            <stop offset="1" stop-color="#850C63"/>
        </linearGradient>
        <clipPath id="clip0">
            <rect width="11.962" height="16" fill="white" transform="translate(10 8)"/>
        </clipPath>
    </defs>
</svg>
